REM DIRINDEX 1\2\4\8,1\2\4\9,1\2\4\10,1\2\5\11,1\2\5\12,1\2\5\13,1\2\5\14,1\2\5\15,1\3\6\16,1\3\6\17,1\3\6\18,1\3\7\19,1\3\7\20,1\3\7\21,1\3\7\22,1\3\7\23
REM DIRNAME "folder01","folder02","folder03","folder04","folder05","folder06","folder07","folder08","folder09","folder10","folder11","folder12","folder13","folder14","folder15","folder16","folder17","folder18","folder19","folder20","folder21","folder22","folder23"
TITLE ""
FILE "LR_black_phrase_E_C04.mp3" MP3
  TRACK 01 AUDIO
    TITLE "0:"
    INDEX 01 00:00:00
  TRACK 02 AUDIO
    TITLE "16:cjc171_09981"
    INDEX 01 00:00:16
  TRACK 03 AUDIO
    TITLE "0:"
    INDEX 01 00:01:35
  TRACK 04 AUDIO
    TITLE "17:cjc171_09982"
    INDEX 01 00:01:65
  TRACK 05 AUDIO
    TITLE "0:"
    INDEX 01 00:03:71
  TRACK 06 AUDIO
    TITLE "18:cjc171_09983"
    INDEX 01 00:04:53
  TRACK 07 AUDIO
    TITLE "0:"
    INDEX 01 00:06:58
  TRACK 08 AUDIO
    TITLE "16:cjc171_09984"
    INDEX 01 00:07:65
  TRACK 09 AUDIO
    TITLE "0:"
    INDEX 01 00:09:25
  TRACK 10 AUDIO
    TITLE "17:cjc171_09985"
    INDEX 01 00:09:52
  TRACK 11 AUDIO
    TITLE "0:"
    INDEX 01 00:11:55
  TRACK 12 AUDIO
    TITLE "18:cjc171_09986"
    INDEX 01 00:12:33
  TRACK 13 AUDIO
    TITLE "0:"
    INDEX 01 00:14:36
  TRACK 14 AUDIO
    TITLE "16:cjc171_09987"
    INDEX 01 00:15:31
  TRACK 15 AUDIO
    TITLE "0:"
    INDEX 01 00:16:45
  TRACK 16 AUDIO
    TITLE "17:cjc171_09988"
    INDEX 01 00:16:64
  TRACK 17 AUDIO
    TITLE "0:"
    INDEX 01 00:18:63
  TRACK 18 AUDIO
    TITLE "18:cjc171_09989"
    INDEX 01 00:19:33
  TRACK 19 AUDIO
    TITLE "0:"
    INDEX 01 00:21:30
  TRACK 20 AUDIO
    TITLE "16:cjc171_09990"
    INDEX 01 00:22:24
  TRACK 21 AUDIO
    TITLE "0:"
    INDEX 01 00:23:56
  TRACK 22 AUDIO
    TITLE "17:cjc171_09991"
    INDEX 01 00:24:11
  TRACK 23 AUDIO
    TITLE "0:"
    INDEX 01 00:26:14
  TRACK 24 AUDIO
    TITLE "18:cjc171_09992"
    INDEX 01 00:26:63
  TRACK 25 AUDIO
    TITLE "0:"
    INDEX 01 00:28:69
  TRACK 26 AUDIO
    TITLE "16:cjc171_09993"
    INDEX 01 00:29:67
  TRACK 27 AUDIO
    TITLE "0:"
    INDEX 01 00:31:09
  TRACK 28 AUDIO
    TITLE "17:cjc171_09994"
    INDEX 01 00:31:40
  TRACK 29 AUDIO
    TITLE "0:"
    INDEX 01 00:33:47
  TRACK 30 AUDIO
    TITLE "18:cjc171_09995"
    INDEX 01 00:34:29
  TRACK 31 AUDIO
    TITLE "0:"
    INDEX 01 00:36:36
  TRACK 32 AUDIO
    TITLE "16:cjc171_09996"
    INDEX 01 00:37:35
  TRACK 33 AUDIO
    TITLE "0:"
    INDEX 01 00:38:46
  TRACK 34 AUDIO
    TITLE "17:cjc171_09997"
    INDEX 01 00:39:03
  TRACK 35 AUDIO
    TITLE "0:"
    INDEX 01 00:40:73
  TRACK 36 AUDIO
    TITLE "18:cjc171_09998"
    INDEX 01 00:41:54
  TRACK 37 AUDIO
    TITLE "0:"
    INDEX 01 00:43:51
  TRACK 38 AUDIO
    TITLE "16:cjc171_09999"
    INDEX 01 00:44:53
  TRACK 39 AUDIO
    TITLE "0:"
    INDEX 01 00:46:06
  TRACK 40 AUDIO
    TITLE "17:cjc171_10000"
    INDEX 01 00:46:28
  TRACK 41 AUDIO
    TITLE "0:"
    INDEX 01 00:48:31
  TRACK 42 AUDIO
    TITLE "18:cjc171_10001"
    INDEX 01 00:49:03
  TRACK 43 AUDIO
    TITLE "0:"
    INDEX 01 00:51:06
  TRACK 44 AUDIO
    TITLE "16:cjc171_10002"
    INDEX 01 00:52:03
  TRACK 45 AUDIO
    TITLE "0:"
    INDEX 01 00:53:50
  TRACK 46 AUDIO
    TITLE "17:cjc171_10003"
    INDEX 01 00:53:69
  TRACK 47 AUDIO
    TITLE "0:"
    INDEX 01 00:56:32
  TRACK 48 AUDIO
    TITLE "18:cjc171_10004"
    INDEX 01 00:57:02
  TRACK 49 AUDIO
    TITLE "0:"
    INDEX 01 00:59:40
  TRACK 50 AUDIO
    TITLE "16:cjc171_10005"
    INDEX 01 01:00:40
  TRACK 51 AUDIO
    TITLE "0:"
    INDEX 01 01:01:49
  TRACK 52 AUDIO
    TITLE "17:cjc171_10006"
    INDEX 01 01:02:06
  TRACK 53 AUDIO
    TITLE "0:"
    INDEX 01 01:03:58
  TRACK 54 AUDIO
    TITLE "18:cjc171_10007"
    INDEX 01 01:04:40
  TRACK 55 AUDIO
    TITLE "0:"
    INDEX 01 01:06:19
  TRACK 56 AUDIO
    TITLE "16:cjc171_10008"
    INDEX 01 01:07:24
  TRACK 57 AUDIO
    TITLE "0:"
    INDEX 01 01:08:55
  TRACK 58 AUDIO
    TITLE "17:cjc171_10009"
    INDEX 01 01:09:10
  TRACK 59 AUDIO
    TITLE "0:"
    INDEX 01 01:11:22
  TRACK 60 AUDIO
    TITLE "18:cjc171_10010"
    INDEX 01 01:12:02
  TRACK 61 AUDIO
    TITLE "0:"
    INDEX 01 01:14:15
  TRACK 62 AUDIO
    TITLE "16:cjc171_10011"
    INDEX 01 01:15:14
  TRACK 63 AUDIO
    TITLE "0:"
    INDEX 01 01:16:29
  TRACK 64 AUDIO
    TITLE "17:cjc171_10012"
    INDEX 01 01:16:51
  TRACK 65 AUDIO
    TITLE "0:"
    INDEX 01 01:18:48
  TRACK 66 AUDIO
    TITLE "18:cjc171_10013"
    INDEX 01 01:19:16
  TRACK 67 AUDIO
    TITLE "0:"
    INDEX 01 01:21:13
  TRACK 68 AUDIO
    TITLE "16:cjc171_10014"
    INDEX 01 01:22:08
  TRACK 69 AUDIO
    TITLE "0:"
    INDEX 01 01:23:23
  TRACK 70 AUDIO
    TITLE "17:cjc171_10015"
    INDEX 01 01:23:45
  TRACK 71 AUDIO
    TITLE "0:"
    INDEX 01 01:25:44
  TRACK 72 AUDIO
    TITLE "18:cjc171_10016"
    INDEX 01 01:26:12
  TRACK 73 AUDIO
    TITLE "0:"
    INDEX 01 01:28:11
  TRACK 74 AUDIO
    TITLE "16:cjc171_10017"
    INDEX 01 01:29:10
  TRACK 75 AUDIO
    TITLE "0:"
    INDEX 01 01:30:39
  TRACK 76 AUDIO
    TITLE "17:cjc171_10018"
    INDEX 01 01:30:68
  TRACK 77 AUDIO
    TITLE "0:"
    INDEX 01 01:33:22
  TRACK 78 AUDIO
    TITLE "18:cjc171_10019"
    INDEX 01 01:34:04
  TRACK 79 AUDIO
    TITLE "0:"
    INDEX 01 01:36:32
  TRACK 80 AUDIO
    TITLE "16:cjc171_10020"
    INDEX 01 01:37:37
  TRACK 81 AUDIO
    TITLE "0:"
    INDEX 01 01:38:66
  TRACK 82 AUDIO
    TITLE "17:cjc171_10021"
    INDEX 01 01:39:20
  TRACK 83 AUDIO
    TITLE "0:"
    INDEX 01 01:41:25
  TRACK 84 AUDIO
    TITLE "18:cjc171_10022"
    INDEX 01 01:42:05
  TRACK 85 AUDIO
    TITLE "0:"
    INDEX 01 01:44:12
  TRACK 86 AUDIO
    TITLE "16:cjc171_10023"
    INDEX 01 01:45:09
  TRACK 87 AUDIO
    TITLE "0:"
    INDEX 01 01:46:26
  TRACK 88 AUDIO
    TITLE "17:cjc171_10024"
    INDEX 01 01:46:50
  TRACK 89 AUDIO
    TITLE "0:"
    INDEX 01 01:49:05
  TRACK 90 AUDIO
    TITLE "18:cjc171_10025"
    INDEX 01 01:49:54
  TRACK 91 AUDIO
    TITLE "0:"
    INDEX 01 01:52:13
  TRACK 92 AUDIO
    TITLE "16:cjc171_10026"
    INDEX 01 01:53:17
  TRACK 93 AUDIO
    TITLE "0:"
    INDEX 01 01:54:26
  TRACK 94 AUDIO
    TITLE "17:cjc171_10027"
    INDEX 01 01:54:43
  TRACK 95 AUDIO
    TITLE "0:"
    INDEX 01 01:56:50
  TRACK 96 AUDIO
    TITLE "18:cjc171_10028"
    INDEX 01 01:57:22
  TRACK 97 AUDIO
    TITLE "0:"
    INDEX 01 01:59:27
  TRACK 98 AUDIO
    TITLE "16:cjc171_10029"
    INDEX 01 02:00:30
  TRACK 99 AUDIO
    TITLE "0:"
    INDEX 01 02:01:51
  TRACK 100 AUDIO
    TITLE "17:cjc171_10030"
    INDEX 01 02:02:08
  TRACK 101 AUDIO
    TITLE "0:"
    INDEX 01 02:04:48
  TRACK 102 AUDIO
    TITLE "18:cjc171_10031"
    INDEX 01 02:05:28
  TRACK 103 AUDIO
    TITLE "0:"
    INDEX 01 02:07:68
  TRACK 104 AUDIO
    TITLE "16:cjc171_10032"
    INDEX 01 02:08:73
  TRACK 105 AUDIO
    TITLE "0:"
    INDEX 01 02:10:13
  TRACK 106 AUDIO
    TITLE "17:cjc171_10033"
    INDEX 01 02:10:43
  TRACK 107 AUDIO
    TITLE "0:"
    INDEX 01 02:12:32
  TRACK 108 AUDIO
    TITLE "18:cjc171_10034"
    INDEX 01 02:13:13
  TRACK 109 AUDIO
    TITLE "0:"
    INDEX 01 02:15:03
  TRACK 110 AUDIO
    TITLE "16:cjc171_10035"
    INDEX 01 02:16:02
  TRACK 111 AUDIO
    TITLE "0:"
    INDEX 01 02:17:11
  TRACK 112 AUDIO
    TITLE "17:cjc171_10036"
    INDEX 01 02:17:31
  TRACK 113 AUDIO
    TITLE "0:"
    INDEX 01 02:19:59
  TRACK 114 AUDIO
    TITLE "18:cjc171_10037"
    INDEX 01 02:20:31
  TRACK 115 AUDIO
    TITLE "0:"
    INDEX 01 02:22:61
  TRACK 116 AUDIO
    TITLE "16:cjc171_10038"
    INDEX 01 02:23:61
  TRACK 117 AUDIO
    TITLE "0:"
    INDEX 01 02:24:56
  TRACK 118 AUDIO
    TITLE "17:cjc171_10039"
    INDEX 01 02:25:05
  TRACK 119 AUDIO
    TITLE "0:"
    INDEX 01 02:27:25
  TRACK 120 AUDIO
    TITLE "18:cjc171_10040"
    INDEX 01 02:27:70
  TRACK 121 AUDIO
    TITLE "0:"
    INDEX 01 02:30:18
